<?xml version="1.0" encoding="UTF-8" standalone="no"?>
<svg
   version="1.0"
   width="40pt"
   height="45pt"
   viewBox="0 0 761.2 993.4"
   preserveAspectRatio="xMidYMid meet"
   id="svg34"
   sodipodi:docname="ec7032d38d5812be31c8396fa7572613.svg"
   xmlns:inkscape="http://www.inkscape.org/namespaces/inkscape"
   xmlns:sodipodi="http://sodipodi.sourceforge.net/DTD/sodipodi-0.dtd"
   xmlns="http://www.w3.org/2000/svg"
   xmlns:svg="http://www.w3.org/2000/svg">
  <defs
     id="defs38" />
  <sodipodi:namedview
     id="namedview36"
     pagecolor="#ffffff"
     bordercolor="#666666"
     borderopacity="1.0"
     inkscape:pageshadow="2"
     inkscape:pageopacity="0.0"
     inkscape:pagecheckerboard="0"
     inkscape:document-units="pt" />
  <metadata
     id="metadata2">
Created by potrace 1.16, written by Peter Selinger 2001-2019
</metadata>
  <g
     transform="matrix(0.1,0,0,-0.1,-619.8,1639.9)"
     fill="#000000"
     stroke="none"
     id="g32">
    <path
       d="m 9010,15959 -865,-438 -3,-876 c -1,-532 2,-875 7,-873 5,1 397,199 870,438 l 861,435 v 878 c 0,482 -1,876 -2,876 -2,-1 -392,-199 -868,-440 z"
       id="path4" />
    <path
       d="m 10120,15532 v -867 l 188,-95 c 103,-52 492,-249 865,-438 l 677,-343 -2,868 -3,868 -425,215 c -234,118 -622,315 -862,437 l -438,222 z"
       id="path6" />
    <path
       d="m 7070,14930 -865,-438 v -865 c 0,-476 3,-868 7,-872 6,-6 1674,830 1712,858 15,11 16,101 14,884 l -3,871 z"
       id="path8" />
    <path
       d="m 12080,14493 v -868 l 283,-142 c 155,-78 544,-275 865,-438 l 582,-296 v 868 868 l -312,157 c -172,86 -562,283 -865,438 l -553,280 z"
       id="path10" />
    <path
       d="m 8142,12514 3,-867 864,-438 c 476,-242 866,-439 868,-439 2,0 2,390 1,867 l -3,866 -864,439 c -476,241 -866,438 -868,438 -2,0 -2,-390 -1,-866 z"
       id="path12" />
    <path
       d="m 12080,12512 v -867 l 238,-120 c 131,-66 520,-263 865,-438 l 627,-318 v 868 868 l -352,177 c -194,97 -584,294 -865,437 l -513,261 z"
       id="path14" />
    <path
       d="m 7062,12913 -864,-437 4,-832 c 1,-458 6,-835 9,-838 3,-3 392,190 865,428 l 859,435 3,840 c 1,463 -1,841 -5,841 -5,-1 -397,-197 -871,-437 z"
       id="path16" />
    <path
       d="m 11013,12894 -863,-436 v -842 -843 l 865,436 865,436 v 843 c 0,463 -1,842 -2,842 -2,-1 -391,-197 -865,-436 z"
       id="path18" />
    <path
       d="m 7116,11018 -868,-442 98,-49 c 55,-27 443,-225 863,-438 420,-214 768,-389 773,-389 12,0 1728,874 1728,880 0,4 -1684,863 -1720,877 -3,1 -396,-196 -874,-439 z"
       id="path20" />
    <path
       d="m 11138,11022 c -471,-240 -859,-440 -862,-443 -3,-3 382,-202 856,-444 l 862,-438 180,90 c 100,50 491,248 869,441 l 689,350 -204,105 c -335,173 -1526,777 -1530,776 -2,0 -389,-197 -860,-437 z"
       id="path22" />
    <path
       d="m 9133,10001 -863,-438 862,-438 c 474,-241 866,-438 872,-438 8,0 1717,866 1733,877 5,4 -1718,876 -1729,876 -7,0 -401,-198 -875,-439 z"
       id="path24" />
    <path
       d="m 11700,7415 v -925 h 140 140 v 489 c 0,277 4,492 9,495 20,13 251,46 316,46 87,-1 161,-26 189,-63 20,-28 21,-42 26,-495 l 5,-467 143,-3 142,-3 v 423 c -1,511 -7,604 -50,692 -33,70 -71,108 -140,140 -39,18 -64,21 -195,21 -151,0 -251,-16 -375,-60 -75,-27 -70,-50 -70,310 v 325 h -140 -140 z"
       id="path26" />
    <path
       d="m 7170,7345 v -855 h 140 140 l 2,718 c 2,561 6,712 15,692 9,-20 184,-553 291,-887 l 17,-53 h 215 216 l 91,283 c 50,155 120,371 154,479 35,108 67,194 71,192 5,-3 8,-324 8,-715 v -709 h 140 140 l -2,853 -3,852 -236,3 c -182,2 -239,-1 -246,-10 -5,-7 -28,-71 -51,-143 -93,-298 -276,-870 -279,-874 -1,-2 -6,-1 -10,2 -3,4 -76,235 -162,514 l -157,508 -247,3 -247,2 z"
       id="path28" />
    <path
       d="m 10753,7774 c -263,-44 -382,-207 -345,-473 13,-92 46,-156 100,-198 53,-41 106,-56 307,-94 267,-50 275,-54 283,-141 6,-74 -10,-119 -51,-143 -28,-18 -55,-20 -213,-23 -161,-3 -238,1 -392,24 l -43,7 3,-98 3,-98 40,-14 c 131,-46 216,-57 425,-58 191,0 210,2 275,24 138,47 194,106 221,231 19,87 14,226 -10,305 -29,93 -103,155 -219,184 -26,6 -120,25 -207,41 -180,33 -224,49 -247,93 -21,42 -13,131 14,159 48,47 217,60 443,33 189,-22 170,-31 170,79 0,63 -4,97 -12,104 -37,29 -280,73 -395,71 -38,-1 -105,-7 -150,-15 z"
       id="path30" />
  </g>
</svg>
